
        <svg xmlns="http://www.w3.org/2000/svg" xmlns:xlink="http://www.w3.org/1999/xlink" version="1.1" width="3161.961235507567" height="958.6199085343218" viewBox="0 0 3161.961235507567 958.6199085343218">
			
			<g transform="scale(8.098061775378351) translate(10, 10)">
				<defs id="SvgjsDefs5307"/><g id="SvgjsG5308" featureKey="symbolFeature-0" transform="matrix(1.0321796373719756,0,0,1.0321796373719756,0.49058962668056694,-2.4772307359474572)" fill="#fff"><path xmlns="http://www.w3.org/2000/svg" d="M63.2,27.5c-1.9,0-3.8,0.6-5.3,1.6L46.3,17.4c1-1.5,1.6-3.3,1.6-5.3c0-5.3-4.3-9.7-9.7-9.7s-9.7,4.3-9.7,9.7  c0,1.9,0.6,3.8,1.6,5.3L18.4,29c-1.5-1-3.3-1.6-5.3-1.6c-5.3,0-9.7,4.3-9.7,9.7s4.3,9.7,9.7,9.7s9.7-4.3,9.7-9.7  c0-1.9-0.6-3.8-1.6-5.3l11.6-11.6c1.5,1,3.3,1.6,5.3,1.6c1.9,0,3.8-0.6,5.3-1.6l11.6,11.6c-1,1.5-1.6,3.3-1.6,5.3  c0,5.3,4.3,9.7,9.7,9.7c5.3,0,9.7-4.3,9.7-9.7S68.5,27.5,63.2,27.5z M13.2,42.8c-3.1,0-5.7-2.5-5.7-5.7s2.5-5.7,5.7-5.7  s5.7,2.5,5.7,5.7S16.3,42.8,13.2,42.8z M38.2,17.8c-3.1,0-5.7-2.5-5.7-5.7s2.5-5.7,5.7-5.7s5.7,2.5,5.7,5.7S41.3,17.8,38.2,17.8z   M63.2,42.8c-3.1,0-5.7-2.5-5.7-5.7s2.5-5.7,5.7-5.7s5.7,2.5,5.7,5.7S66.3,42.8,63.2,42.8z"/><path xmlns="http://www.w3.org/2000/svg" d="M88.2,52.5c-5.3,0-9.7,4.3-9.7,9.7c0,1.9,0.6,3.8,1.6,5.3L68.4,79c-1.5-1-3.3-1.6-5.3-1.6c-1.9,0-3.8,0.6-5.3,1.6L46.3,67.4  c1-1.5,1.6-3.3,1.6-5.3c0-5.3-4.3-9.7-9.7-9.7s-9.7,4.3-9.7,9.7c0,5.3,4.3,9.7,9.7,9.7c1.9,0,3.8-0.6,5.3-1.6l11.6,11.6  c-1,1.5-1.6,3.3-1.6,5.3c0,5.3,4.3,9.7,9.7,9.7c5.3,0,9.7-4.3,9.7-9.7c0-1.9-0.6-3.8-1.6-5.3l11.6-11.6c1.5,1,3.3,1.6,5.3,1.6  c5.3,0,9.7-4.3,9.7-9.7C97.8,56.8,93.5,52.5,88.2,52.5z M32.5,62.1c0-3.1,2.5-5.7,5.7-5.7s5.7,2.5,5.7,5.7s-2.5,5.7-5.7,5.7  S32.5,65.3,32.5,62.1z M63.2,92.8c-3.1,0-5.7-2.5-5.7-5.7s2.5-5.7,5.7-5.7s5.7,2.5,5.7,5.7S66.3,92.8,63.2,92.8z M88.2,67.8  c-3.1,0-5.7-2.5-5.7-5.7s2.5-5.7,5.7-5.7s5.7,2.5,5.7,5.7S91.3,67.8,88.2,67.8z"/><path xmlns="http://www.w3.org/2000/svg" d="M38.2,77.5c-1.9,0-3.8,0.6-5.3,1.6L21.3,67.4c1-1.5,1.6-3.3,1.6-5.3c0-1.9-0.6-3.8-1.6-5.3l11.6-11.6c1.5,1,3.3,1.6,5.3,1.6  c5.3,0,9.7-4.3,9.7-9.7s-4.3-9.7-9.7-9.7s-9.7,4.3-9.7,9.7c0,1.9,0.6,3.8,1.6,5.3L18.4,54c-1.5-1-3.3-1.6-5.3-1.6  c-5.3,0-9.7,4.3-9.7,9.7c0,5.3,4.3,9.7,9.7,9.7c1.9,0,3.8-0.6,5.3-1.6l11.6,11.6c-1,1.5-1.6,3.3-1.6,5.3c0,5.3,4.3,9.7,9.7,9.7  s9.7-4.3,9.7-9.7C47.8,81.8,43.5,77.5,38.2,77.5z M38.2,31.5c3.1,0,5.7,2.5,5.7,5.7s-2.5,5.7-5.7,5.7s-5.7-2.5-5.7-5.7  S35,31.5,38.2,31.5z M7.5,62.1c0-3.1,2.5-5.7,5.7-5.7s5.7,2.5,5.7,5.7s-2.5,5.7-5.7,5.7S7.5,65.3,7.5,62.1z M38.2,92.8  c-3.1,0-5.7-2.5-5.7-5.7s2.5-5.7,5.7-5.7s5.7,2.5,5.7,5.7S41.3,92.8,38.2,92.8z"/><path xmlns="http://www.w3.org/2000/svg" d="M88.2,27.5c-1.9,0-3.8,0.6-5.3,1.6L71.3,17.4c1-1.5,1.6-3.3,1.6-5.3c0-5.3-4.3-9.7-9.7-9.7c-5.3,0-9.7,4.3-9.7,9.7  s4.3,9.7,9.7,9.7c1.9,0,3.8-0.6,5.3-1.6l11.6,11.6c-1,1.5-1.6,3.3-1.6,5.3c0,1.9,0.6,3.8,1.6,5.3L68.4,54c-1.5-1-3.3-1.6-5.3-1.6  c-5.3,0-9.7,4.3-9.7,9.7c0,5.3,4.3,9.7,9.7,9.7c5.3,0,9.7-4.3,9.7-9.7c0-1.9-0.6-3.8-1.6-5.3l11.6-11.6c1.5,1,3.3,1.6,5.3,1.6  c5.3,0,9.7-4.3,9.7-9.7S93.5,27.5,88.2,27.5z M63.2,17.8c-3.1,0-5.7-2.5-5.7-5.7s2.5-5.7,5.7-5.7s5.7,2.5,5.7,5.7  S66.3,17.8,63.2,17.8z M63.2,67.8c-3.1,0-5.7-2.5-5.7-5.7s2.5-5.7,5.7-5.7s5.7,2.5,5.7,5.7S66.3,67.8,63.2,67.8z M88.2,42.8  c-3.1,0-5.7-2.5-5.7-5.7s2.5-5.7,5.7-5.7s5.7,2.5,5.7,5.7S91.3,42.8,88.2,42.8z"/></g><g id="SvgjsG5309" featureKey="nameFeature-0" transform="matrix(2.206115262330017,0,0,2.206115262330017,112.88181747247823,-23.149713148996007)" fill="#fff"><path d="M2.32 40 l0 -28.6 l10.68 0 l0 9.76 l6.64 -9.76 l10.96 0 l-9.32 13 l9.84 15.6 l-12.2 0 l-5.92 -10.28 l0 10.28 l-10.68 0 z M39.252 40 l0 -28.6 l20.68 0 l0 8.16 l-10 0 l0 4 l8.12 0 l0 7.72 l-8.12 0 l0 8.72 l-10.68 0 z M68.864 40 l0 -28.6 l10.76 0 l0 28.6 l-10.76 0 z M90.036 40 l0 -28.6 l12.56 0 c8.52 0 12.48 3.44 12.48 9.64 l0 0.16 c0 3.76 -1.64 6 -4.2 7.4 l5.88 11.4 l-11.08 0 l-4.44 -9.08 l-0.6 0 l0 9.08 l-10.6 0 z M100.63600000000001 24.240000000000002 l1.2 0 c2.08 0 3 -0.84 3 -2.52 l0 -0.16 c0 -1.56 -0.92 -2.24 -2.92 -2.24 l-1.28 0 l0 4.92 z"/></g><g id="SvgjsG5310" featureKey="sloganFeature-0" transform="matrix(1.2073823609217686,0,0,1.2073823609217686,117.64563334155064,69.88972592594925)" fill="#fff"><path d="M11.27 20 l-1.0254 -2.9102 l-5.9277 0 l-1.0254 2.9102 l-2.998 0 l5.1953 -14.111 l3.584 0 l5.1953 14.111 l-2.998 0 z M5.1758 14.6387 l4.209 0 l-2.0996 -5.9863 z M39.4386953125 5.888999999999999 l3.1152 0 l-5.2148 14.111 l-3.2227 0 l-5.1855 -14.111 l3.1055 0 l3.7012 10.693 z M66.201128125 20 l-3.6719 -6.2109 l-0.84961 0 l0 6.2109 l-2.9297 0 l0 -14.111 l5.1172 0 c3.1934 0 4.541 1.8848 4.541 4.2188 c0 1.8945 -1.0742 3.125 -2.9883 3.5352 l4.248 6.3574 l-3.4668 0 z M61.679728125 8.32 l0 3.3691 l1.7285 0 c1.5625 0 2.1973 -0.66406 2.1973 -1.6797 c0 -1.0059 -0.63477 -1.6895 -2.1973 -1.6895 l-1.7285 0 z M95.3373828125 20 l-1.0254 -2.9102 l-5.9277 0 l-1.0254 2.9102 l-2.998 0 l5.1953 -14.111 l3.584 0 l5.1953 14.111 l-2.998 0 z M89.2431828125 14.6387 l4.209 0 l-2.0996 -5.9863 z M123.428078125 5.888999999999999 l2.9297 0 l0 14.111 l-2.9297 0 l0 -5.8008 l-5.9668 0 l0 5.8008 l-2.9297 0 l0 -14.111 l2.9297 0 l0 5.7617 l5.9668 0 l0 -5.7617 z M153.5307421875 20 l-1.0254 -2.9102 l-5.9277 0 l-1.0254 2.9102 l-2.998 0 l5.1953 -14.111 l3.584 0 l5.1953 14.111 l-2.998 0 z M147.4365421875 14.6387 l4.209 0 l-2.0996 -5.9863 z M188.8964375 20 l-2.9199 0 l-0.92773 -10.635 l-3.5742 10.635 l-1.8945 0 l-3.5742 -10.635 l-0.9375 10.635 l-2.9297 0 l1.1816 -14.111 l4.1797 0 l3.0078 8.8574 l3.0469 -8.8574 l4.1797 0 z M207.7490671875 13.7988 c-0.87891 0 -1.6113 -0.73242 -1.6113 -1.6211 c0 -0.86914 0.73242 -1.6016 1.6113 -1.6016 c0.86914 0 1.6211 0.73242 1.6211 1.6016 c0 0.88867 -0.75195 1.6211 -1.6211 1.6211 z M205.2783671875 23.5938 l1.2207 -6.3867 l2.8906 0 l-2.0996 6.3867 l-2.0117 0 z"/></g>
			</g>
		</svg>
	